<mxfile host="app.diagrams.net" modified="2023-08-02T09:31:50.862Z" agent="Mozilla/5.0 (Macintosh; Intel Mac OS X 10_15_7) AppleWebKit/537.36 (KHTML, like Gecko) Chrome/115.0.0.0 Safari/537.36" etag="OpvOhYwCLfOR5NbPXb1H" version="21.5.2" type="github">
  <diagram name="第 1 页" id="FGJh3REmYH9sXVtc4aAs">
    <mxGraphModel dx="1975" dy="855" grid="1" gridSize="10" guides="1" tooltips="1" connect="1" arrows="1" fold="1" page="1" pageScale="1" pageWidth="827" pageHeight="1169" math="0" shadow="0">
      <root>
        <mxCell id="0" />
        <mxCell id="1" parent="0" />
        <mxCell id="NLsAojO9Ypd2aA2TegAv-7" style="edgeStyle=orthogonalEdgeStyle;rounded=0;orthogonalLoop=1;jettySize=auto;html=1;entryX=0.5;entryY=0;entryDx=0;entryDy=12;entryPerimeter=0;" edge="1" parent="1" source="NLsAojO9Ypd2aA2TegAv-1" target="NLsAojO9Ypd2aA2TegAv-5">
          <mxGeometry relative="1" as="geometry" />
        </mxCell>
        <mxCell id="NLsAojO9Ypd2aA2TegAv-1" value="小游戏下注/盈利事件" style="rounded=0;whiteSpace=wrap;html=1;" vertex="1" parent="1">
          <mxGeometry x="120" y="60" width="120" height="30" as="geometry" />
        </mxCell>
        <mxCell id="NLsAojO9Ypd2aA2TegAv-8" style="edgeStyle=orthogonalEdgeStyle;rounded=0;orthogonalLoop=1;jettySize=auto;html=1;entryX=0.5;entryY=0;entryDx=0;entryDy=12;entryPerimeter=0;" edge="1" parent="1" source="NLsAojO9Ypd2aA2TegAv-2" target="NLsAojO9Ypd2aA2TegAv-5">
          <mxGeometry relative="1" as="geometry" />
        </mxCell>
        <mxCell id="NLsAojO9Ypd2aA2TegAv-2" value="活动事件" style="rounded=0;whiteSpace=wrap;html=1;" vertex="1" parent="1">
          <mxGeometry x="260" y="60" width="120" height="30" as="geometry" />
        </mxCell>
        <mxCell id="NLsAojO9Ypd2aA2TegAv-9" style="edgeStyle=orthogonalEdgeStyle;rounded=0;orthogonalLoop=1;jettySize=auto;html=1;entryX=0.5;entryY=0;entryDx=0;entryDy=12;entryPerimeter=0;" edge="1" parent="1" source="NLsAojO9Ypd2aA2TegAv-4" target="NLsAojO9Ypd2aA2TegAv-5">
          <mxGeometry relative="1" as="geometry" />
        </mxCell>
        <mxCell id="NLsAojO9Ypd2aA2TegAv-4" value="其他事件" style="rounded=0;whiteSpace=wrap;html=1;" vertex="1" parent="1">
          <mxGeometry x="414" y="60" width="120" height="30" as="geometry" />
        </mxCell>
        <mxCell id="NLsAojO9Ypd2aA2TegAv-5" value="事件总线（MQ）" style="html=1;shadow=0;dashed=0;align=center;verticalAlign=middle;shape=mxgraph.arrows2.twoWayArrow;dy=0.6;dx=35;" vertex="1" parent="1">
          <mxGeometry x="55" y="140" width="530" height="40" as="geometry" />
        </mxCell>
        <mxCell id="NLsAojO9Ypd2aA2TegAv-10" value="" style="rounded=0;whiteSpace=wrap;html=1;" vertex="1" parent="1">
          <mxGeometry x="55" y="200" width="655" height="620" as="geometry" />
        </mxCell>
        <mxCell id="NLsAojO9Ypd2aA2TegAv-11" value="" style="rounded=0;whiteSpace=wrap;html=1;" vertex="1" parent="1">
          <mxGeometry x="90" y="280" width="160" height="100" as="geometry" />
        </mxCell>
        <mxCell id="NLsAojO9Ypd2aA2TegAv-12" value="规则管理" style="rounded=0;whiteSpace=wrap;html=1;" vertex="1" parent="1">
          <mxGeometry x="110" y="310" width="120" height="20" as="geometry" />
        </mxCell>
        <mxCell id="NLsAojO9Ypd2aA2TegAv-13" value="版本管理" style="rounded=0;whiteSpace=wrap;html=1;" vertex="1" parent="1">
          <mxGeometry x="110" y="340" width="120" height="20" as="geometry" />
        </mxCell>
        <mxCell id="NLsAojO9Ypd2aA2TegAv-14" value="运营后台" style="text;strokeColor=none;align=center;fillColor=none;html=1;verticalAlign=middle;whiteSpace=wrap;rounded=0;" vertex="1" parent="1">
          <mxGeometry x="90" y="280" width="60" height="30" as="geometry" />
        </mxCell>
      </root>
    </mxGraphModel>
  </diagram>
</mxfile>
